<?xml version="1.0"?>
<svg xmlns="http://www.w3.org/2000/svg" xmlns:xlink="http://www.w3.org/1999/xlink" xmlns:svgjs="http://svgjs.com/svgjs" version="1.1" width="512" height="512" x="0" y="0" viewBox="0 0 64 64" style="enable-background:new 0 0 512 512" xml:space="preserve" class=""><g><path xmlns="http://www.w3.org/2000/svg" d="m32 8c-13.234 0-24 10.766-24 24s10.766 24 24 24 24-10.766 24-24-10.766-24-24-24zm0 44c-11.028 0-20-8.972-20-20s8.972-20 20-20 20 8.972 20 20-8.972 20-20 20z" fill="#1d9bf0" data-original="#000000" style="" class=""/><path xmlns="http://www.w3.org/2000/svg" d="m39.414 24.586c-.78-.781-2.048-.781-2.828 0l-4.586 4.586-4.586-4.586c-.78-.781-2.048-.781-2.828 0-.781.781-.781 2.047 0 2.828l4.586 4.586-4.586 4.586c-.781.781-.781 2.047 0 2.828.39.391.902.586 1.414.586s1.024-.195 1.414-.586l4.586-4.586 4.586 4.586c.39.391.902.586 1.414.586s1.024-.195 1.414-.586c.781-.781.781-2.047 0-2.828l-4.586-4.586 4.586-4.586c.781-.781.781-2.047 0-2.828z" fill="#1d9bf0" data-original="#000000" style="" class=""/></g></svg>
